# xmcd
#
# Track frame offsets: 
#        150
#        13023
#        37401
#        51173
#        78093
#        96910
#        117468
#        141817
#        159652
#        191034
#        209122
#        236766
#        258174
#
# Disc length: 3627 seconds
#
# Revision: 0
# Processed by: cddbd v1.5.2PL0 Copyright (c) Steve Scherf et al.
# Submitted via: ExactAudioCopy v0.95a5
#
DISCID=be0e290d
DTITLE=Detroin Women And The Motor City Express - Rattle Your Cage
DYEAR=2005
DGENRE=Blues
TTITLE0=Old Weakness (Terrie Lea)
TTITLE1=Strongest Weakness (Lady T)
TTITLE2=My Man Is Ugly (Rhonda Bantismba)
TTITLE3=I'd Rather Go Blind (Kathi McDonald)
TTITLE4=Breakin' Up Somebody's Home (Stacia Petrie)
TTITLE5=Two Plays For A Quarter (Kate Hart)
TTITLE6=Paradise (Elena Papillo)
TTITLE7=Leap Of Faith (Terrie Lea)
TTITLE8=When Something Is Wrong With My Baby (Rhonda Bantismba)
TTITLE9=I Believe (Valerie Barrymore)
TTITLE10=Good Rocking Daddy (Kate Hart)
TTITLE11=Done Me Like You Own Me (Lady T)
TTITLE12=Save Your Breath (Kathi McDonald)
EXTD=
EXTT0=
EXTT1=
EXTT2=
EXTT3=
EXTT4=
EXTT5=
EXTT6=
EXTT7=
EXTT8=
EXTT9=
EXTT10=
EXTT11=
EXTT12=
PLAYORDER=
